<?xml version="1.0" encoding="UTF-8"?> <svg xmlns="http://www.w3.org/2000/svg" width="95" height="74" viewBox="0 0 95 74" fill="none"> <path d="M30.1773 73.2C24.3773 73.2 19.2107 71.7667 14.6773 68.9C10.144 66.0333 6.57734 61.9 3.97734 56.5C1.44401 51.0333 0.177344 44.5333 0.177344 37C0.177344 29.4667 1.44401 23 3.97734 17.6C6.57734 12.1333 10.144 7.96666 14.6773 5.1C19.2107 2.23333 24.3773 0.799999 30.1773 0.799999C35.9773 0.799999 41.144 2.23333 45.6773 5.1C50.2107 7.96666 53.744 12.1333 56.2773 17.6C58.8773 23 60.1773 29.4667 60.1773 37C60.1773 44.5333 58.8773 51.0333 56.2773 56.5C53.744 61.9 50.2107 66.0333 45.6773 68.9C41.144 71.7667 35.9773 73.2 30.1773 73.2ZM30.1773 59.5C34.444 59.5 37.7773 57.6667 40.1773 54C42.644 50.3333 43.8773 44.6667 43.8773 37C43.8773 29.3333 42.644 23.6667 40.1773 20C37.7773 16.3333 34.444 14.5 30.1773 14.5C25.9773 14.5 22.644 16.3333 20.1773 20C17.7773 23.6667 16.5773 29.3333 16.5773 37C16.5773 44.6667 17.7773 50.3333 20.1773 54C22.644 57.6667 25.9773 59.5 30.1773 59.5ZM94.4625 2V72H78.2625V15H64.2625V2H94.4625Z" fill="url(#paint0_linear)"></path> <defs> <linearGradient id="paint0_linear" x1="49.5" y1="-25" x2="49.5" y2="97" gradientUnits="userSpaceOnUse"> <stop stop-color="#FF800B"></stop> <stop offset="1" stop-color="#B85800"></stop> </linearGradient> </defs> </svg> 