<?xml version="1.0" encoding="UTF-8"?> <svg xmlns="http://www.w3.org/2000/svg" width="120" height="74" viewBox="0 0 120 74" fill="none"> <path d="M30.2652 73.2C24.4652 73.2 19.2986 71.7667 14.7652 68.9C10.2319 66.0333 6.66523 61.9 4.06524 56.5C1.5319 51.0333 0.265234 44.5333 0.265234 37C0.265234 29.4667 1.5319 23 4.06524 17.6C6.66523 12.1333 10.2319 7.96666 14.7652 5.1C19.2986 2.23333 24.4652 0.799999 30.2652 0.799999C36.0652 0.799999 41.2319 2.23333 45.7652 5.1C50.2986 7.96666 53.8319 12.1333 56.3652 17.6C58.9652 23 60.2652 29.4667 60.2652 37C60.2652 44.5333 58.9652 51.0333 56.3652 56.5C53.8319 61.9 50.2986 66.0333 45.7652 68.9C41.2319 71.7667 36.0652 73.2 30.2652 73.2ZM30.2652 59.5C34.5319 59.5 37.8652 57.6667 40.2652 54C42.7319 50.3333 43.9652 44.6667 43.9652 37C43.9652 29.3333 42.7319 23.6667 40.2652 20C37.8652 16.3333 34.5319 14.5 30.2652 14.5C26.0652 14.5 22.7319 16.3333 20.2652 20C17.8652 23.6667 16.6652 29.3333 16.6652 37C16.6652 44.6667 17.8652 50.3333 20.2652 54C22.7319 57.6667 26.0652 59.5 30.2652 59.5ZM119.85 58.8V72H66.9504V61.5L93.9504 36C96.8171 33.2667 98.7504 30.9333 99.7504 29C100.75 27 101.25 25.0333 101.25 23.1C101.25 20.3 100.284 18.1667 98.3504 16.7C96.4837 15.1667 93.7171 14.4 90.0504 14.4C86.9837 14.4 84.2171 15 81.7504 16.2C79.2837 17.3333 77.2171 19.0667 75.5504 21.4L63.7504 13.8C66.4837 9.73333 70.2504 6.56666 75.0504 4.3C79.8504 1.96666 85.3504 0.799999 91.5504 0.799999C96.7504 0.799999 101.284 1.66666 105.15 3.4C109.084 5.06666 112.117 7.46667 114.25 10.6C116.45 13.6667 117.55 17.3 117.55 21.5C117.55 25.3 116.75 28.8667 115.15 32.2C113.55 35.5333 110.45 39.3333 105.85 43.6L89.7504 58.8H119.85Z" fill="url(#paint0_linear)"></path> <defs> <linearGradient id="paint0_linear" x1="59.5" y1="-25" x2="59.5" y2="97" gradientUnits="userSpaceOnUse"> <stop stop-color="#FF800B"></stop> <stop offset="1" stop-color="#B85800"></stop> </linearGradient> </defs> </svg> 