<?xml version="1.0" encoding="UTF-8"?> <svg xmlns="http://www.w3.org/2000/svg" width="119" height="74" viewBox="0 0 119 74" fill="none"> <path d="M30.3629 73.2C24.5629 73.2 19.3962 71.7667 14.8629 68.9C10.3296 66.0333 6.76289 61.9 4.16289 56.5C1.62956 51.0333 0.362891 44.5333 0.362891 37C0.362891 29.4667 1.62956 23 4.16289 17.6C6.76289 12.1333 10.3296 7.96666 14.8629 5.1C19.3962 2.23333 24.5629 0.799999 30.3629 0.799999C36.1629 0.799999 41.3296 2.23333 45.8629 5.1C50.3962 7.96666 53.9296 12.1333 56.4629 17.6C59.0629 23 60.3629 29.4667 60.3629 37C60.3629 44.5333 59.0629 51.0333 56.4629 56.5C53.9296 61.9 50.3962 66.0333 45.8629 68.9C41.3296 71.7667 36.1629 73.2 30.3629 73.2ZM30.3629 59.5C34.6296 59.5 37.9629 57.6667 40.3629 54C42.8296 50.3333 44.0629 44.6667 44.0629 37C44.0629 29.3333 42.8296 23.6667 40.3629 20C37.9629 16.3333 34.6296 14.5 30.3629 14.5C26.1629 14.5 22.8296 16.3333 20.3629 20C17.9629 23.6667 16.7629 29.3333 16.7629 37C16.7629 44.6667 17.9629 50.3333 20.3629 54C22.8296 57.6667 26.1629 59.5 30.3629 59.5ZM99.9574 30.5C106.091 31.5 110.791 33.8 114.057 37.4C117.324 40.9333 118.957 45.3333 118.957 50.6C118.957 54.6667 117.891 58.4333 115.757 61.9C113.624 65.3 110.357 68.0333 105.957 70.1C101.624 72.1667 96.2908 73.2 89.9574 73.2C85.0241 73.2 80.1574 72.5667 75.3574 71.3C70.6241 69.9667 66.5908 68.1 63.2574 65.7L69.5574 53.3C72.2241 55.3 75.2908 56.8667 78.7574 58C82.2908 59.0667 85.8908 59.6 89.5574 59.6C93.6241 59.6 96.8241 58.8333 99.1574 57.3C101.491 55.7 102.657 53.4667 102.657 50.6C102.657 44.8667 98.2908 42 89.5574 42H82.1574V31.3L96.5574 15H66.7574V2H115.757V12.5L99.9574 30.5Z" fill="url(#paint0_linear)"></path> <defs> <linearGradient id="paint0_linear" x1="59.5" y1="-25" x2="59.5" y2="97" gradientUnits="userSpaceOnUse"> <stop stop-color="#FF800B"></stop> <stop offset="1" stop-color="#B85800"></stop> </linearGradient> </defs> </svg> 