<?xml version="1.0" encoding="UTF-8"?> <svg xmlns="http://www.w3.org/2000/svg" width="133" height="74" viewBox="0 0 133 74" fill="none"> <path d="M30.9918 73.2C25.1918 73.2 20.0251 71.7667 15.4918 68.9C10.9585 66.0333 7.3918 61.9 4.7918 56.5C2.25846 51.0333 0.991797 44.5333 0.991797 37C0.991797 29.4667 2.25846 23 4.7918 17.6C7.3918 12.1333 10.9585 7.96666 15.4918 5.1C20.0251 2.23333 25.1918 0.799999 30.9918 0.799999C36.7918 0.799999 41.9585 2.23333 46.4918 5.1C51.0251 7.96666 54.5585 12.1333 57.0918 17.6C59.6918 23 60.9918 29.4667 60.9918 37C60.9918 44.5333 59.6918 51.0333 57.0918 56.5C54.5585 61.9 51.0251 66.0333 46.4918 68.9C41.9585 71.7667 36.7918 73.2 30.9918 73.2ZM30.9918 59.5C35.2585 59.5 38.5918 57.6667 40.9918 54C43.4585 50.3333 44.6918 44.6667 44.6918 37C44.6918 29.3333 43.4585 23.6667 40.9918 20C38.5918 16.3333 35.2585 14.5 30.9918 14.5C26.7918 14.5 23.4585 16.3333 20.9918 20C18.5918 23.6667 17.3918 29.3333 17.3918 37C17.3918 44.6667 18.5918 50.3333 20.9918 54C23.4585 57.6667 26.7918 59.5 30.9918 59.5ZM132.963 57.3H121.563V72H105.763V57.3H68.0629V46.4L101.063 2H118.063L87.4629 44.1H106.263V31H121.563V44.1H132.963V57.3Z" fill="url(#paint0_linear)"></path> <defs> <linearGradient id="paint0_linear" x1="65.5" y1="-25" x2="65.5" y2="97" gradientUnits="userSpaceOnUse"> <stop stop-color="#FF800B"></stop> <stop offset="1" stop-color="#B85800"></stop> </linearGradient> </defs> </svg> 