<?xml version="1.0" encoding="UTF-8"?> <svg xmlns="http://www.w3.org/2000/svg" width="88" height="88" viewBox="0 0 88 88" fill="none"> <g filter="url(#filter0_d)"> <circle cx="40" cy="40" r="34" fill="url(#paint0_linear)"></circle> </g> <path d="M54.7358 30.9604L45.6374 40.0002L54.7358 49.04C54.9002 48.6963 55 48.3162 55 47.9104V32.0901C55 31.6842 54.9002 31.3042 54.7358 30.9604Z" fill="white"></path> <path d="M52.3633 29.4531H27.6367C27.2308 29.4531 26.8508 29.5529 26.5071 29.7174L38.1358 41.2875C39.164 42.3157 40.836 42.3157 41.8642 41.2875L53.4929 29.7174C53.1491 29.5529 52.7691 29.4531 52.3633 29.4531Z" fill="white"></path> <path d="M25.2643 30.9604C25.0998 31.3042 25 31.6842 25 32.0901V47.9104C25 48.3163 25.0998 48.6963 25.2643 49.04L34.3626 40.0002L25.2643 30.9604Z" fill="white"></path> <path d="M44.3945 41.2427L43.107 42.5302C41.3938 44.2434 38.6061 44.2434 36.8929 42.5302L35.6055 41.2427L26.5071 50.2825C26.8508 50.4469 27.2308 50.5467 27.6367 50.5467H52.3633C52.7691 50.5467 53.1491 50.4469 53.4929 50.2825L44.3945 41.2427Z" fill="white"></path> <defs> <filter id="filter0_d" x="0" y="0" width="88" height="88" filterUnits="userSpaceOnUse" color-interpolation-filters="sRGB"> <feFlood flood-opacity="0" result="BackgroundImageFix"></feFlood> <feColorMatrix in="SourceAlpha" type="matrix" values="0 0 0 0 0 0 0 0 0 0 0 0 0 0 0 0 0 0 127 0"></feColorMatrix> <feOffset dx="4" dy="4"></feOffset> <feGaussianBlur stdDeviation="5"></feGaussianBlur> <feColorMatrix type="matrix" values="0 0 0 0 0 0 0 0 0 0 0 0 0 0 0 0 0 0 0.25 0"></feColorMatrix> <feBlend mode="normal" in2="BackgroundImageFix" result="effect1_dropShadow"></feBlend> <feBlend mode="normal" in="SourceGraphic" in2="effect1_dropShadow" result="shape"></feBlend> </filter> <linearGradient id="paint0_linear" x1="40" y1="6" x2="40" y2="74" gradientUnits="userSpaceOnUse"> <stop stop-color="#FF800B"></stop> <stop offset="1" stop-color="#DB6900"></stop> </linearGradient> </defs> </svg> 