<?xml version="1.0" encoding="UTF-8"?> <svg xmlns="http://www.w3.org/2000/svg" width="88" height="88" viewBox="0 0 88 88" fill="none"> <g filter="url(#filter0_d)"> <circle cx="40" cy="40" r="34" fill="url(#paint0_linear)"></circle> </g> <g clip-path="url(#clip0)"> <path d="M54.1835 47.017L49.9969 42.8304C48.5017 41.3352 45.9598 41.9333 45.3617 43.877C44.9132 45.2228 43.418 45.9704 42.0723 45.6713C39.0818 44.9237 35.0448 41.0361 34.2972 37.8962C33.8486 36.5504 34.7457 35.0552 36.0914 34.6067C38.0352 34.0086 38.6333 31.4668 37.1381 29.9716L32.9515 25.785C31.7553 24.7383 29.9611 24.7383 28.9144 25.785L26.0735 28.6259C23.2326 31.6163 26.3726 39.5409 33.4 46.5684C40.4275 53.5959 48.3522 56.8854 51.3426 53.8949L54.1835 51.054C55.2302 49.8579 55.2302 48.0636 54.1835 47.017Z" fill="white"></path> </g> <defs> <filter id="filter0_d" x="0" y="0" width="88" height="88" filterUnits="userSpaceOnUse" color-interpolation-filters="sRGB"> <feFlood flood-opacity="0" result="BackgroundImageFix"></feFlood> <feColorMatrix in="SourceAlpha" type="matrix" values="0 0 0 0 0 0 0 0 0 0 0 0 0 0 0 0 0 0 127 0"></feColorMatrix> <feOffset dx="4" dy="4"></feOffset> <feGaussianBlur stdDeviation="5"></feGaussianBlur> <feColorMatrix type="matrix" values="0 0 0 0 0 0 0 0 0 0 0 0 0 0 0 0 0 0 0.25 0"></feColorMatrix> <feBlend mode="normal" in2="BackgroundImageFix" result="effect1_dropShadow"></feBlend> <feBlend mode="normal" in="SourceGraphic" in2="effect1_dropShadow" result="shape"></feBlend> </filter> <linearGradient id="paint0_linear" x1="40" y1="6" x2="40" y2="74" gradientUnits="userSpaceOnUse"> <stop stop-color="#FF800B"></stop> <stop offset="1" stop-color="#DB6900"></stop> </linearGradient> <clipPath id="clip0"> <rect width="30" height="30" fill="white" transform="translate(25 25)"></rect> </clipPath> </defs> </svg> 